<svg xmlns="http://www.w3.org/2000/svg" viewBox="0 0 65.49 65.42">
  <g data-name="Layer 2">
    <path fill="#14a2dc" d="M32.74 3.15L35.68 0l2.33 3.62 3.45-2.57 1.65 3.98 3.86-1.92.91 4.21 4.13-1.19.14 4.3 4.29-.44-.63 4.26 4.29.34-1.38 4.08 4.16 1.09-2.08 3.77 3.9 1.82-2.72 3.34 3.51 2.49-3.28 2.79 3.01 3.08-3.72 2.16 2.42 3.56-4.05 1.47 1.74 3.94-4.25.72 1.01 4.18-4.3-.05.24 4.3-4.23-.82-.52 4.27-4.02-1.56-1.28 4.11-3.67-2.25-1.99 3.82-3.21-2.87-2.65 3.39-2.64-3.39-3.21 2.87-1.99-3.82-3.67 2.25-1.28-4.11-4.02 1.56-.53-4.27-4.22.82.24-4.3-4.3.05 1.01-4.18-4.25-.72 1.74-3.94-4.05-1.47 2.41-3.56-3.72-2.16 3.01-3.08L0 31.18l3.51-2.49-2.72-3.34 3.9-1.82-2.09-3.77 4.17-1.09-1.38-4.08 4.29-.34-.63-4.26 4.29.44.14-4.3 4.13 1.19.91-4.21 3.86 1.92 1.64-3.98 3.46 2.57L29.81 0l2.93 3.15z" data-name="Pop Ups"/>
  </g>
</svg>
