<svg xmlns="http://www.w3.org/2000/svg" viewBox="0 0 151.4 98.9">
  <g data-name="Layer 2">
    <g data-name="Pop Ups">
      <path d="M150.8 90.3l-18.6-1.2-20.5-.2-18.4 4.3-1.8-1.6-6.7 4.2-5.1.5-3.8-1.5-2 1.2-5.4.9-2.5-1.2-7-1-1.6.2-6.5-.5-2 2.6-7.3 1.3-6.8-3L32.7 84l-4.1-4.9-5.5.3-1.1-3-3.4-.1-3.8.1-2 1.8-3.8-3-.4-3.8 3.4-1 1-5.6-3.7-.7-.7-4.8 5.4-2-4.2-2.7L6 46v-3.9l-2.2-10-3.2-3.6.4-12.6h2.8L7.7 19l4.1 2.6 4.6 1.5 6.3 1.5 4.2-.1 4.1 1 4.6.4 1.6-.8.6-3.1 1.3-1.8 1-1h2l.9 2.3-2.8 1.3.2 2.8 2.7 1.4 2 2.8 1.4 2.2 1.8-.7v-1.7l-1.7-1.4-1.5-3.9.5-2.5-1.2-1.8-.7-3.3 1.3-5-2.1-3-4.4-5.5.2-1.1L40.3.7l6 .7h104.5zM28.7 11.1l2.8-1 1.1 1.9 1.7-2.8 3.3-.7 1.6 2-1.6 2.8 1 1-.3 3.1-2 1s-1.2.4-1.3 0v-2.7l-1.2-.4v.8l-.8 1.1-2.9-2.8z" stroke="#1e4e6c" stroke-width="1.3" fill="none" stroke-miterlimit="10"/>
      <circle cx="52.5" cy="36.4" r="4.4" stroke="#199fda" stroke-width=".5" fill="none" stroke-miterlimit="10"/>
      <circle cx="52.5" cy="36.4" r="3" fill="#199fda"/>
    </g>
  </g>
</svg>
