<svg xmlns="http://www.w3.org/2000/svg" viewBox="0 0 151.38 98.9"><defs><style>.cls-1,.cls-2{fill:none;stroke-miterlimit:10;}.cls-1{stroke:#1e4e6c;stroke-width:1.26px;}.cls-2{stroke:#199fda;stroke-width:0.48px;}.cls-3{fill:#199fda;}</style></defs><title>Asset 6</title><g id="Layer_2" data-name="Layer 2"><g id="Pop_Ups" data-name="Pop Ups"><path id="WA" class="cls-1" d="M150.75,90.34h0l-18.59-1.22-20.46-.25L93.3,93.24l-1.82-1.65-6.69,4.22-5.09.52-3.8-1.57-2,1.29-5.36.82L66,95.66l-7.07-.92-1.55.12-6.5-.46-2,2.63L41.6,98.25l-6.79-3L32.66,84l-4.1-4.86-5.42.23-1.17-3-3.35-.08-3.83.15-2,1.77L9,75.22l-.41-3.78L12,70.32l.94-5.54-3.61-.69-.76-4.77,5.45-2-4.18-2.7L6,46l0-3.86L3.81,32.07.64,28.48,1,15.87l2.81.06L7.67,19l4.15,2.57,4.6,1.55,6.31,1.45,4.12-.08L31,25.59l4.61.35,1.61-.88L37.79,22l1.35-1.76,1-1,2,0L43,21.54l-2.79,1.27.19,2.76L43.12,27l2.06,2.76L46.46,32l1.86-.67-.1-1.71-1.63-1.38L45.08,24.3l.53-2.51L44.43,20l-.71-3.31L45,11.64l-2.12-3L38.55,3.16l.17-1.1L40.28.66l6,.71H150.75ZM28.66,11.08l2.81-.9L32.61,12l1.67-2.76,3.3-.71,1.61,1.91-1.63,2.9,1.1,1-.39,3.08-1.89,1s-1.26.42-1.35,0S35,15.66,35,15.66l-1.2-.34,0,.81L33,17.21l-2.86-2.84Z"/><circle class="cls-2" cx="52.54" cy="36.38" r="4.42"/><circle class="cls-3" cx="52.54" cy="36.38" r="3.02"/></g></g></svg>