<svg xmlns="http://www.w3.org/2000/svg" viewBox="0 0 110.45 126.09"><defs><style>.cls-1{fill:#fff;stroke:#064d6f;stroke-width:1.26px;}.cls-1,.cls-2{stroke-miterlimit:10;}.cls-2{fill:none;stroke:#00a0df;stroke-width:0.48px;}.cls-3{fill:#00a0df;}</style></defs><title>Asset 4</title><g id="Layer_2" data-name="Layer 2"><g id="US_Map_-_Fill" data-name="US Map - Fill"><polygon id="AZ" class="cls-1" points="109.82 0.63 14.66 0.63 14.66 31.61 13.69 35.23 12.02 35.53 10.13 33.16 7.13 33.34 5.51 32.54 3.69 33.1 2.96 34.15 1.44 35.94 2.97 43.52 4.46 49.2 8.26 53.63 10.46 58.61 11.75 59.85 12.55 60.28 12.65 61.67 11.51 62.94 8.57 65.2 7.18 67.63 6.36 71.75 6.87 76.4 4.89 79.36 2.9 80.91 4.12 86.92 3.94 88.88 5.26 90.31 8.22 89.96 8.18 91.59 7.25 93.82 3.61 97.35 0.71 97.35 0.64 99.28 1.31 100.26 66.51 125.45 109.82 125.38 109.82 0.63"/><circle class="cls-2" cx="67.85" cy="112.8" r="4.61"/><circle class="cls-3" cx="67.85" cy="112.8" r="3.15"/></g></g></svg>