<svg xmlns="http://www.w3.org/2000/svg" viewBox="0 0 152.91 111.73"><defs><style>.cls-1,.cls-3{fill:none;stroke-miterlimit:10;}.cls-1{stroke:#199fda;stroke-width:0.48px;}.cls-2{fill:#199fda;}.cls-3{stroke:#1e4e6c;stroke-width:1.26px;}</style></defs><title>Asset 9</title><g id="Layer_2" data-name="Layer 2"><g id="Pop_Ups" data-name="Pop Ups"><circle class="cls-1" cx="35.38" cy="44.26" r="4.61"/><circle class="cls-2" cx="35.38" cy="44.26" r="3.15"/><path id="WA" class="cls-3" d="M149.65,14.34l-18.25-1.2-20.07-.24L93.27,17.19l-1.78-1.62-6.58,4.14-5,.52-3.73-1.55-2,1.27-5.26.8-2.51-1.19-6.94-.9L58,18.78l-6.38-.45-2,2.58-7.14,1.2-6.66-3-2.11-11-4-4.76-5.32.22L23.27.71,20,.63,16.22.78,14.34,2.43l-.1.09L12.8,6.57l-.44,8.07-.31,12.29-1.46,8.35-1,17.5L6.79,70.2,1.83,87,.65,90.91l1.93,9.92L3.09,108l6.72,3,132.73,0L142.86,65l-.1-5.34.89-7-1.22-1.23-2.77.93-2.06-1.59.18-1.89-.63-3.84,3.4-7.95,1.84-1.64.75-1.19L143,31l.53-1.49,8.61-7.43-2.53-7.77"/></g></g></svg>