<svg xmlns="http://www.w3.org/2000/svg" viewBox="0 0 142.5 174.95"><defs><style>.cls-1,.cls-3{fill:none;stroke-miterlimit:10;}.cls-1{stroke:#199fda;stroke-width:0.48px;}.cls-2{fill:#199fda;}.cls-3{stroke:#1d4d6c;stroke-width:1.26px;}</style></defs><title>Asset 4</title><g id="Layer_2" data-name="Layer 2"><g id="Pop_Ups" data-name="Pop Ups"><circle class="cls-1" cx="40.02" cy="76.15" r="4.61"/><circle class="cls-2" cx="40.02" cy="76.15" r="3.15"/><circle class="cls-1" cx="39.59" cy="66.13" r="4.61"/><circle class="cls-2" cx="39.59" cy="66.13" r="3.15"/><circle class="cls-1" cx="37.81" cy="98.36" r="4.61"/><circle class="cls-2" cx="37.81" cy="98.36" r="3.15"/><circle class="cls-1" cx="37.37" cy="88.34" r="4.61"/><circle class="cls-2" cx="37.37" cy="88.34" r="3.15"/><circle class="cls-1" cx="46.27" cy="46.02" r="4.61"/><circle class="cls-2" cx="46.27" cy="46.02" r="3.15"/><circle class="cls-1" cx="46.27" cy="56.28" r="4.61"/><circle class="cls-2" cx="46.27" cy="56.28" r="3.15"/><polyline class="cls-3" points="135.07 134.45 138.21 138.12 140.04 142.24 141.1 143.27 141.76 143.62 141.85 144.78 140.91 145.82 138.47 147.7 137.32 149.71 136.64 153.12 137.06 156.97 135.42 159.42 133.78 160.7 134.78 165.67 134.63 167.3 135.73 168.48 138.18 168.2 138.14 169.54 137.37 171.39 134.36 174.32 122.85 174.32 97.66 174.32 96.02 167.29 95.22 164.79 92.41 161.88 91.36 160.19 87.51 157.51 84.37 154.26 82.18 154.57 79.48 154.5 79.07 153.75 80.16 153.01 79.12 150.55 77.55 149.14 73.58 149.34 70.09 148.34 68.81 146.7 65.89 143.31 63.03 141.34 60.72 141.85 57.23 140.85 53.32 140.2 49.87 140.54 47.48 138.8 47.55 137.19 47.75 131.21 48.05 129.55 47.63 127.63 46.18 127.11 45.27 124.88 43.62 123.06 39.89 119.02 38.3 116.77 36.28 113.28 34.08 109.32 30.75 106.36 29.84 104.13 29.8 100.88 30.68 100.68 32.08 99.04 32.33 95.97 31.05 93.98 28.81 94.06 26.84 92.31 24.51 89.72 22.91 83.2 23.06 81.58 23.14 79.64 23.36 78.92 24.29 78 25.46 78 26.16 80.34 26.68 82.95 29.2 83.81 28.62 82.67 29.2 80.93 28.62 78.74 27.02 78.02 26.43 76.27 27.02 74.91 27.02 72.78 24.83 72.19 23.74 73.94 24.36 76.38 22.72 77.35 17.46 73.59 17.09 71.91 17.24 71.46 16.92 68.85 15.19 65.88 12.51 62.45 9.56 59.32 7.44 56.52 7.59 53.39 7.06 48.65 7.95 45.85 7.05 40.61 5.55 37.92 3.53 34.84 0.64 31.96 0.72 29.26 1.18 25.64 2.48 24.69 2.53 23.76 4.55 21.14 6.64 10.79 5.51 4.84 6 0.63 57.75 0.63 57.75 57.24 135.01 134.51"/></g></g></svg>