<svg xmlns="http://www.w3.org/2000/svg" viewBox="0 0 110.45 126.09">
  <g data-name="Layer 2">
    <g data-name="US Map - Fill">
      <path stroke-miterlimit="10" fill="#fff" stroke="#064d6f" stroke-width="1.26" d="M109.82.63H14.66v30.98l-.97 3.62-1.67.3-1.89-2.37-3 .18-1.62-.8-1.82.56-.73 1.05-1.52 1.79 1.53 7.58 1.49 5.68 3.8 4.43 2.2 4.98 1.29 1.24.8.43.1 1.39-1.14 1.27-2.94 2.26-1.39 2.43-.82 4.12.51 4.65-1.98 2.96-1.99 1.55 1.22 6.01-.18 1.96 1.32 1.43 2.96-.35-.04 1.63-.93 2.23-3.64 3.53H.71l-.07 1.93.67.98 65.2 25.19 43.31-.07V.63z"/>
      <circle cx="67.85" cy="112.8" r="4.61" fill="none" stroke="#00a0df" stroke-width=".48" stroke-miterlimit="10"/>
      <circle cx="67.85" cy="112.8" r="3.15" fill="#00a0df"/>
    </g>
  </g>
</svg>
