<svg xmlns="http://www.w3.org/2000/svg" viewBox="0 0 142.5 174.95">
  <defs>
    <style>
      .cls-1{fill:none;stroke-miterlimit:10;stroke:#199fda;stroke-width:.48px}.cls-2{fill:#199fda}
    </style>
  </defs>
  <g id="Layer_2" data-name="Layer 2">
    <g id="Pop_Ups" data-name="Pop Ups">
      <circle class="cls-1" cx="40.02" cy="76.15" r="4.61"/>
      <circle class="cls-2" cx="40.02" cy="76.15" r="3.15"/>
      <circle class="cls-1" cx="39.59" cy="66.13" r="4.61"/>
      <circle class="cls-2" cx="39.59" cy="66.13" r="3.15"/>
      <circle class="cls-1" cx="37.81" cy="98.36" r="4.61"/>
      <circle class="cls-2" cx="37.81" cy="98.36" r="3.15"/>
      <circle class="cls-1" cx="37.37" cy="88.34" r="4.61"/>
      <circle class="cls-2" cx="37.37" cy="88.34" r="3.15"/>
      <circle class="cls-1" cx="46.27" cy="46.02" r="4.61"/>
      <circle class="cls-2" cx="46.27" cy="46.02" r="3.15"/>
      <circle class="cls-1" cx="46.27" cy="56.28" r="4.61"/>
      <circle class="cls-2" cx="46.27" cy="56.28" r="3.15"/>
      <path stroke="#1d4d6c" stroke-width="1.26" fill="none" stroke-miterlimit="10" d="M135.07 134.45l3.14 3.67 1.83 4.12 1.06 1.03.66.35.09 1.16-.94 1.04-2.44 1.88-1.15 2.01-.68 3.41.42 3.85-1.64 2.45-1.64 1.28 1 4.97-.15 1.63 1.1 1.18 2.45-.28-.04 1.34-.77 1.85-3.01 2.93h-36.7l-1.64-7.03-.8-2.5-2.81-2.91-1.05-1.69-3.85-2.68-3.14-3.25-2.19.31-2.7-.07-.41-.75 1.09-.74-1.04-2.46-1.57-1.41-3.97.2-3.49-1-1.28-1.64-2.92-3.39-2.86-1.97-2.31.51-3.49-1-3.91-.65-3.45.34-2.39-1.74.07-1.61.2-5.98.3-1.66-.42-1.92-1.45-.52-.91-2.23-1.65-1.82-3.73-4.04-1.59-2.25-2.02-3.49-2.2-3.96-3.33-2.96-.91-2.23-.04-3.25.88-.2 1.4-1.64.25-3.07-1.28-1.99-2.24.08-1.97-1.75-2.33-2.59-1.6-6.52.15-1.62.08-1.94.22-.72.93-.92h1.17l.7 2.34.52 2.61 2.52.86-.58-1.14.58-1.74-.58-2.19-1.6-.72-.59-1.75.59-1.36v-2.13l-2.19-.59-1.09 1.75.62 2.44-1.64.97-5.26-3.76-.37-1.68.15-.45-.32-2.61-1.73-2.97-2.68-3.43-2.95-3.13-2.12-2.8.15-3.13-.53-4.74.89-2.8-.9-5.24-1.5-2.69-2.02-3.08-2.89-2.88.08-2.7.46-3.62 1.3-.95.05-.93 2.02-2.62 2.09-10.35-1.13-5.95L6 .63h51.75v56.61l77.26 77.27"/>
    </g>
  </g>
</svg>
