<svg xmlns="http://www.w3.org/2000/svg" viewBox="0 0 156.7 150">
  <defs>
    <style>
      .cls-1{fill:none;stroke-miterlimit:10;stroke:#199fda;stroke-width:.48px}.cls-2{fill:#199fda}
    </style>
  </defs>
  <g id="Layer_2" data-name="Layer 2">
    <g id="Pop_Ups" data-name="Pop Ups">
      <circle class="cls-1" cx="135.1" cy="46.7" r="4.6"/>
      <circle class="cls-2" cx="135.1" cy="46.7" r="3.1"/>
      <circle class="cls-1" cx="121.6" cy="55.5" r="4.6"/>
      <circle class="cls-2" cx="121.6" cy="55.5" r="3.1"/>
      <circle class="cls-1" cx="133.1" cy="57.5" r="4.6"/>
      <circle class="cls-2" cx="133.1" cy="57.5" r="3.1"/>
      <circle class="cls-1" cx="123.8" cy="44.4" r="4.6"/>
      <circle class="cls-2" cx="123.8" cy="44.4" r="3.1"/>
      <path id="TX" d="M79 27l.2 1.2 2.9 2.5 1.3.6h1.1l.3-.8.5.6h1.5l.7-.4v-.1l.7.3-.2 2.3 2.9.3 1.5.5 2.7.3 1.7 1.1 1.7-1.3 1.8.3 1.5 2h.5v1.3l2.2.6 1.5-1.4 1 .3h1.3l.5 1.3 3.3 1 1.5-.3 1-2.6h.1l.8 1.2 3 .4 2.2.7 2 .6 1.6-.9.3-1.4 2.3-.1 1.4.5 1.7-1.3h.3l.3.8 3-.1 1.2-1.2.8.2 1.1 1.3 2.2 1.1 2.2.5 1.6.9 1.8 1.2 2-.9 1.3.4 1 12.7.7 6 .5 2.6 1.8 2.7.7 2.9 2.9 3.6.3 2 .4.5-.2 4.9-1.7 3.1.9 1.6-.3 1.6-.3 4.6-.7 2 .3 2.6-3.5 1.1-6.2 3.1-.5 1.3-1.6 1.3-1.3 1-.8.5-3.5 3.6-1.6 1.4-3.3 2.2-3.6 1.7-3.9 2.3-1 1-3.6 2.5-2.2.4-2.3 3.7-2.5.3-.6 1.3 1.5 1-.8 3.6-.7 3-.6 2.4-.3 3 .5 1.4 1.4 4.4.8 3.9 1.2 1.6-.6 1-1.9 1.3-3.7-2.3-3.5-.5-.8.3-2.1-.3-2.8-1.8-3.3-.6-5-2-1.4-2.3-1-4.1-2-1.1-.5-1.5.3-.4.1-2.1-.8-.4-.4-.6.7-2.8-1.1-1.4-2.1-.8-2.3-2.7-2.5-4-2.7-1.6V115l-3.7-7.6-.6-2.7-1.2-1.1-.2-1-4-3.2-1.8-2v-.6l-1.7-1.3-4.3-.5-4.8-.1-2-1.4-2.8 1.3-2.2 1L45 98l-.5 2.4-2.6 4-1.4 1.6-1.7-.6-1.2-.6-1.2-.3-2.6-1.4v-.4l-1.2-1.1-3.3-1.2-5-4.8-1.6-2.9-.2-5.1-2.3-4-.4-1.7-1-.6L18 80l-3.2-1.2-1-1L9.3 73l-1-2-3-1.3-1-2.8-1.8-1.8-1.1-.2-.6-3.4h42.9V.6h35.7z" stroke="#1e4e6c" stroke-width="1.3" fill="none" stroke-miterlimit="10"/>
    </g>
  </g>
</svg>
