<svg xmlns="http://www.w3.org/2000/svg" viewBox="0 0 152.91 111.73">
  <g data-name="Layer 2">
    <g data-name="Pop Ups">
      <circle cx="35.38" cy="44.26" r="4.61" stroke="#199fda" stroke-width=".48" fill="none" stroke-miterlimit="10"/>
      <circle cx="35.38" cy="44.26" r="3.15" fill="#199fda"/>
      <path d="M149.65 14.34l-18.25-1.2-20.07-.24-18.06 4.29-1.78-1.62-6.58 4.14-5 .52-3.73-1.55-2 1.27-5.26.8-2.51-1.19-6.94-.9-1.47.12-6.38-.45-2 2.58-7.14 1.2-6.66-3-2.11-11-4-4.76-5.32.22L23.27.71 20 .63l-3.78.15-1.88 1.65-.1.09-1.44 4.05-.44 8.07-.31 12.29-1.46 8.35-1 17.5-2.8 17.42L1.83 87 .65 90.91l1.93 9.92.51 7.17 6.72 3h132.73l.32-46-.1-5.34.89-7-1.22-1.23-2.77.93-2.06-1.59.18-1.89-.63-3.84 3.4-7.95 1.84-1.64.75-1.19L143 31l.53-1.49 8.61-7.43-2.53-7.77" stroke="#1e4e6c" stroke-width="1.26" fill="none" stroke-miterlimit="10"/>
    </g>
  </g>
</svg>
