<svg xmlns="http://www.w3.org/2000/svg" viewBox="0 0 656.71 536.59"><defs><style>.cls-1,.cls-2,.cls-3,.cls-6{fill:none;stroke-miterlimit:10;stroke-width:1.26px;}.cls-1{stroke:#bdccd4;}.cls-2{stroke:#c4ced1;}.cls-3{stroke:#074e6f;}.cls-4{font-size:20.67px;fill:#00a2e1;font-family:AvenirNextLTPro-Heavy, Avenir Next LT Pro;font-weight:800;}.cls-5{letter-spacing:0.06em;}.cls-6{stroke:#064d6f;}</style></defs><title>Asset 2</title><g id="Layer_2" data-name="Layer 2"><g id="Map"><path id="LA" class="cls-1" d="M558.23,447.05l-.51-4.27,1.18-3.12.48-7.37.39-2.47-1.45-2.59,2.73-5,.35-7.88-.65-.78-.46-3.15-4.56-5.81L554.6,400l-2.86-4.36-.8-4.15-1.17-9.65-.66-8H611l2.32,5.19-.23,2.08,2.2,2.33-.56,2.17-1.5.35.78,2.91L604,404.62l-1.4,9.27.2,3.48H639.9l-1.53,8.11,3.37,3.94,1.91,7.26-2.12,1.75-2,2,.94,2,3.24.85.8-2.81,2.15-2.19,1.6-.12.14,3,1.25,2.16-2.11,3.29-3.38-.2,0,.54,1.84,1.21-.25.65-2.42-.47-1.34,2.89,3.24,2.72,6.08,1.24,3.42,3.17,1.37.08-.09,1.65-2.64,3.25-1.1-1.16-3.06-.18-1-1.71L644.08,458l-4.4-.93-.43-3.43-.59-.92L637.42,454l-2.26.42.12,1.65-.95,1.71,2.2.46-.88.5L633,462.35l-3.68,1.21-.6-.69,2.49-.74-.66-3.23-1.31-1.18-2,1.54-2.79.49-1.21,2.57-3.89,1.2-8.65-4.47-1.59-1.86,1.43-.79,1-1.71-1.79-2.09L605,452l-.17-2.54-1.43-2.72-3.34-.86-2,1-1.8-1.75-3.35.9-.94,1.59,2.75,1.93,2.78-.39,3.31,1.41-1,2.25-3.32-1.3-3.31-1.4-4,1.41-6.8-1.62-10.66-4.59-8.58-.18Z"/><path id="AR" class="cls-1" d="M536.32,296h91.95l1.89,3.16-.85,3.28L626,305.1,625.5,307l5.51.53,4.34-1.17-1.58,4-1.27,4.19-.32,2.1-4.45,2.4,1.49,4-1,4.09L626,328.5l-.21,3.29-2.65,1.1-3.07,5.79.53,1.69.1,1.7-2.65,1.1-4.23,5.59.84,2.19-2.86,2.3-1.16,5.89-.74,2.39,1.48,2.2-1.59,1.4,1.8,3.09L612,372l-1,1.9H549.11l-1-12.38-2.18-.71-3.1,1.37L540,360.28l-.49-38.57L538,311l-.11-8.47Z"/><polygon id="MO" class="cls-2" points="515.48 194.67 589.91 194.67 589.91 194.73 591.39 197.69 593.83 200.55 594.78 203.09 597.54 206.38 596.79 208.92 597.32 213.37 599.76 221.1 607.39 229.36 613 233.07 613 237.41 614.17 239.43 621.48 240.06 623.49 241.12 622.85 244.3 620.52 250.66 619.67 254.15 622 258.6 629.21 264.53 634.08 265.27 635.99 270.14 638.11 273.53 637.15 276.29 638.95 281.06 641.18 283.7 643.72 283.38 644.88 285.08 644.14 286.77 644.14 289.85 642.13 290.91 637.68 294.51 637.15 300.76 635.35 306.37 631.01 307.54 625.5 307.01 626.03 305.1 629.31 302.45 630.16 299.17 628.27 296.01 536.32 296.01 535.68 289.31 535.79 285.08 536.51 245.13 535.24 232.31 532.59 230 530.05 226.54 527.61 222.38 528.25 218.92 530.05 217.3 530.05 214.88 529.2 214.07 526.45 213.84 522.84 209.91 520.5 206.73 517.75 202.6 517.86 200.17 516.37 197.31 515.48 194.67"/><polygon id="IA" class="cls-2" points="593.51 128.21 594.46 131.7 596.69 133.93 597.01 134.67 594.89 137.85 595.21 142.08 597.96 146.43 601.24 148.12 603.79 148.44 604.74 150.34 604.95 152.89 607.6 153.95 608.55 155.11 609.08 156.81 613.11 160.3 613.74 162.31 613 165.49 611.2 169.41 610.57 171.95 608.34 173.65 606.65 174.18 600.61 175.77 598.91 180.85 599.76 182.76 601.56 184.35 601.35 188.05 599.34 189.54 598.6 191.44 598.6 193.99 597.11 194.41 595.31 195.89 594.78 197.69 595.21 199.49 593.83 200.55 591.39 197.69 589.91 194.73 589.91 194.67 515.48 194.67 514.36 191.8 513.94 184.7 512.46 180.36 511.93 175.06 509.49 171.14 508.43 166.16 505.46 157.8 504.46 152.04 503.72 150.87 502.13 147.38 504.04 143.04 505.31 137.32 502.56 135.2 502.13 132.02 503.09 128.63 505.52 128.21 593.51 128.21"/><polyline id="MN" class="cls-2" points="503.09 73.8 503.09 75.88 501.71 77.47 499.59 79.06 499.49 81.39 500.65 83.72 504.99 87.32 505.52 90.18 505.52 128.21 592.19 128.21 591.6 121.55 589.7 119.44 582.07 114.82 578.26 109.5 574.66 108.59 572.54 105.78 569.15 105.78 565.44 101.97 564.91 94.94 565.02 91.02 566.61 88.01 565.87 85.3 562.9 82.18 565.23 76.06 570.95 72.04 572.22 70.64 572.01 62.6 572.22 59.59 574.97 56.58 579 53.67 580.38 53.47 585.14 48.45 587.05 47.64 589.49 43.73 592.03 40.11 595.31 37.5 600.4 35.49 610.14 31.38 614.27 29.57 614.91 27.26 610.25 27.66 609.5 28.77 608.87 28.77 606.96 25.65 597.54 25.95 596.48 26.76 595.42 26.76 594.89 25.45 594.04 23.64 591.29 24.15 587.9 27.36 586.2 28.16 582.92 28.16 580.16 27.16 580.16 25.05 578.79 24.85 578.26 25.35 575.5 24.05 574.97 21.14 573.38 21.64 572.86 22.64 570.31 22.14 564.7 19.73 560.57 17.12 557.5 17.12 556.12 16.11 553.68 16.72 552.52 17.82 552.2 19.13 547.12 19.13 547.12 17.02 540.44 16.72 540.13 15.21 535.04 15.21 533.35 13.6 531.76 7.48 530.91 1.96 528.9 1.15 526.46 0.65 525.83 0.85 525.51 9.09 493.63 9.06 493.63 9.54 495.53 15.42 494.9 19.12 494.9 29.12 496.59 34.23 498.6 37.28 499.13 46.6 501.04 59.67 502.95 66.69 503.37 72.64 503.37 73.8"/><path id="OK" class="cls-1" d="M535.79,285.55l-.11,3.77.64,6.69,1.58,6.5L538,311l1.48,10.73.49,38.57L537.37,359l-3.51-.86-3.46-1.78-1.83-2.06-1.34-.34-1.85,1.92-4.79.22-.58-1.4-.41,0-3,2.18-2.19-.92-3.67.17-.6,2.38-2.39,1.34-3.31-.87L501,357.81l-4.73-.7L495,355.22h-.11l-1.74,4.17-2.32.61-5.4-1.79-.71-2.11H482.6l-1.55-.44-2.45,2.26-3.42-1-.1-2.14-.82-.07-2.39-3.05-2.78-.49-2.76,2.07-2.74-1.71-4.31-.51-2.49-.8-4.62-.5.24-3.79-1.05-.46v.2l-1.09.66-2.46-.09-.75-.88-.45,1.25-1.84.08-2.09-1-4.68-4-.3-2,.48-42.19H381v-12Z"/><polygon id="KS" class="cls-1" points="397.41 285.55 535.77 285.55 536.51 245.13 535.24 232.31 532.59 230 530.05 226.54 527.61 222.38 528.25 218.92 530.05 217.3 530.05 214.88 529.2 214.07 526.45 213.84 522.74 209.91 397.41 209.91 397.41 285.55"/><polyline id="NE" class="cls-1" points="468.49 137.98 364.42 137.98 364.42 198.8 397.41 198.8 397.41 209.91 522.84 209.91 520.5 206.73 517.75 202.6 517.86 200.17 516.37 197.31 514.36 191.8 513.94 184.7 512.46 180.36 511.93 175.06 509.49 171.14 508.43 166.16 505.46 157.8 504.4 152.18 501.55 152.39 500.49 149.96 499.96 148.26 496.88 146.57 491.8 144.98 489.47 143.71 486.71 143.81 482.8 144.24 478.35 145.51 471.99 141.17 468.49 137.98"/><path id="SD" class="cls-2" d="M468.49,138l3.5,3.19,6.36,4.34,4.45-1.27,3.92-.43,2.75-.1L491.8,145l5.08,1.59,3.08,1.69.53,1.7,1.05,2.43,2.86-.21.06-.14-.74-1.17-1.59-3.49L504,143l1.27-5.72-2.75-2.12-.43-3.18,1-3.39,2.43-.42v-38L505,87.32l-4.34-3.6-1.16-2.33.1-2.33,2.12-1.59,1.38-1.59V73.8H364.42V138H468.49"/><polygon id="ND" class="cls-2" points="364.42 73.8 503.37 73.8 503.37 72.64 502.95 66.69 501.04 59.67 499.13 46.6 498.6 37.28 496.59 34.23 494.9 29.12 494.9 19.12 495.53 15.42 493.63 9.54 364.42 9.54 364.42 73.8"/><polyline id="NM" class="cls-1" points="269.78 410.29 287.81 410.29 287.81 398.76 312.97 398.76 312.23 395.1 380.96 395.1 380.96 285.55 269.78 285.55 269.78 410.29"/><polygon id="WY" class="cls-1" points="227.41 198.8 364.42 198.8 364.42 103.19 227.48 103.19 227.41 198.8"/><path id="MT" class="cls-1" d="M364.42,103.19H227.48l-.07,9.61-.9-2.58-1.06-1-2,1.49-.17,2.85-3.21,1.2-4.39-.83-3.92.92-2.44,1.26-3.85-.83-2.45.72L201,118.62l-2.31-.71-1.58-4,.1-3.16L194,108.28l-4-2-5.6-13-1.11-4.85-.34,0-.12.46-4.54,4.72-1.81.15-3.73-2.9-.87-3.18,3.6-19.26-.83-1.93L170.88,66,170,64.88l-3.44-3-7-9.63-3.65-.9-3.13-4.71.36-5.08-4.94-7.18-.05-24.8H364.42Z"/><polygon id="AZ" class="cls-1" points="269.78 285.55 174.62 285.55 174.62 316.53 173.65 320.14 171.98 320.44 170.09 318.07 167.09 318.26 165.47 317.46 163.65 318.01 162.92 319.06 161.4 320.85 162.93 328.44 164.42 334.12 168.22 338.55 170.42 343.53 171.71 344.76 172.51 345.2 172.61 346.59 171.47 347.85 168.53 350.12 167.14 352.54 166.32 356.67 166.83 361.31 164.85 364.27 162.86 365.82 164.07 371.83 163.9 373.79 165.22 375.22 168.18 374.88 168.13 376.51 167.21 378.73 163.57 382.27 160.67 382.27 160.6 384.2 161.27 385.18 226.47 410.37 269.78 410.29 269.78 285.55"/><polygon id="NV" class="cls-1" points="174.62 172.48 174.62 316.53 173.65 320.14 171.98 320.44 170.09 318.07 167.09 318.26 165.47 317.46 163.65 318.01 162.92 319.06 161.4 320.85 162.93 328.44 164.42 334.12 164.35 334.19 71.03 240.86 71.03 172.48 174.62 172.48"/><path id="ID" class="cls-1" d="M227.48,172.39V112.83l-1-2.61-1.06-1-2,1.49-.17,2.85-3.21,1.2-4.39-.83-3.92.92-2.44,1.26-3.85-.83-2.45.72L201,118.62l-2.31-.71-1.58-4,.1-3.16L194,108.28l-4-2-5.6-13-1.11-4.85-.34,0-.12.46-4.54,4.72-1.81.15-3.73-2.9-.87-3.18,3.6-19.26-.83-1.93L170.88,66,170,64.88l-3.44-3-7-9.63-3.65-.9-3.13-4.71.36-5.08-4.94-7.18-.05-24.8H132.55l0,54.22v23l2.2,6.94-7.62,6.57-.47,1.33.09,2.89-.67,1.06L124.5,107l-3,7,.56,3.4-.16,1.66,1.82,1.42,2.46-.83,1.07,1.09-.78,6.17.09,4.72-.29,40.81Z"/><path id="TX" class="cls-3" d="M437.71,339.72l.3,2,4.68,4,2.09,1,1.84-.08.45-1.25.75.88,2.46.09,1.09-.66v-.2l1.05.46-.24,3.79,4.62.5,2.49.8,4.31.51,2.74,1.71,2.76-2.07,2.78.49,2.39,3.05.82.07.1,2.14,3.42,1,2.45-2.26,1.55.44h2.14l.71,2.11,5.4,1.79,2.32-.61,1.74-4.17H495l1.21,1.89,4.73.7,3.52,1.16,3.31.87,2.39-1.34.6-2.38,3.67-.17,2.19.92,3-2.18.41,0,.58,1.4,4.79-.22,1.85-1.92,1.34.34,1.83,2.06,3.46,1.78,3.51.86,2.61,1.31,2.85,1.91,3.1-1.37,2.18.71,1.66,20.35,1.17,9.65.8,4.15L554.6,400l1.13,4.54,4.56,5.81.46,3.15.65.78-.35,7.88-2.73,5,1.45,2.59-.39,2.47-.48,7.37-1.18,3.12.51,4.27-5.64,1.9L542.72,454l-.93,2-2.56,2.06-2.07,1.62-1.28.88-5.56,5.67-2.65,2.27L522.42,472l-5.7,2.72-6.25,3.77-1.77,1.61L503,484l-3.43.78-3.72,5.79-4.06.49-.93,2,2.44,1.82L492,500.59l-1.11,4.65-.94,4-.6,4.63.93,2.4,2.17,7.05,1.31,6.17,2,2.67-.95,1.57-3.07,2.09-6-3.71-5.66-.86-1.3.58-3.29-.46-4.42-3-5.36-.88-7.9-3.1-2.33-3.88L453.81,514l-3.35-1.78-.72-2.32.58-.64.14-3.48-1.35-.55-.66-1,1.12-4.54-1.74-2.27-3.33-1.17L440.83,492l-4-6.56-4.4-2.45.11-1.94-6-12.29-1-4.24-1.93-1.85-.27-1.52L417,456l-2.79-3-.06-1.12-2.75-2-7-.79-7.57-.26-3.27-2.2-4.5,2.05-3.59,1.7-2.2,3.37-.84,3.82-4.19,6.42-2.33,2.56-2.7-.9-1.89-1-2-.52-4.09-2.16,0-.61-1.93-1.85-5.4-1.9L350,449.92l-2.57-4.68-.38-8.26-3.57-6.47-.64-2.73-1.68-.94L340,424.75l-5.19-1.9-1.4-1.57-7.61-7.71-1.48-3.2-4.9-2.12-1.74-4.41L314.85,401l-1.75-.43-.87-5.48H381V297.53h57.23Z"/><text class="cls-4" transform="translate(441.69 418.85) scale(0.94 1)"><tspan class="cls-5">T</tspan><tspan x="12.17" y="0">X</tspan></text><rect id="CO" class="cls-3" x="269.78" y="198.8" width="127.63" height="86.74"/><text class="cls-4" transform="translate(317.82 248.43) scale(0.94 1)">CO</text><polygon id="UT" class="cls-3" points="269.78 285.55 174.62 285.55 174.62 172.48 227.4 172.5 227.48 198.8 269.67 198.8 269.78 285.55"/><text class="cls-4" transform="translate(205.43 242.18) scale(0.94 1)">UT</text><polyline id="CA" class="cls-6" points="164.42 334.12 168.22 338.55 170.42 343.53 171.71 344.76 172.51 345.2 172.61 346.59 171.47 347.85 168.53 350.12 167.14 352.54 166.32 356.67 166.83 361.31 164.85 364.27 162.86 365.82 164.07 371.83 163.9 373.79 165.22 375.22 168.18 374.88 168.13 376.51 167.21 378.73 163.57 382.27 149.67 382.27 119.24 382.27 117.25 373.79 116.29 370.76 112.89 367.25 111.63 365.2 106.98 361.97 103.19 358.05 100.54 358.42 97.28 358.33 96.78 357.43 98.1 356.53 96.84 353.57 94.95 351.86 90.15 352.1 85.94 350.9 84.39 348.91 80.87 344.82 77.41 342.44 74.61 343.06 70.4 341.85 65.68 341.07 61.52 341.47 58.63 339.37 58.71 337.43 58.95 330.2 59.32 328.19 58.81 325.88 57.05 325.25 55.96 322.56 53.96 320.36 49.45 315.48 47.54 312.76 45.1 308.54 42.44 303.76 38.42 300.19 37.32 297.5 37.27 293.56 38.33 293.33 40.02 291.34 40.32 287.63 38.78 285.24 36.07 285.33 33.69 283.22 30.88 280.09 28.95 272.21 29.13 270.25 29.22 267.91 29.5 267.05 30.61 265.94 32.03 265.94 32.87 268.76 33.5 271.9 36.54 272.95 35.84 271.57 36.54 269.47 35.84 266.83 33.91 265.95 33.2 263.84 33.91 262.2 33.91 259.62 31.27 258.92 29.95 261.03 30.7 263.98 28.72 265.14 22.36 260.61 21.92 258.58 22.11 258.03 21.72 254.88 19.62 251.29 16.38 247.15 12.82 243.37 10.26 239.99 10.45 236.2 9.8 230.48 10.88 227.1 9.8 220.76 7.97 217.52 5.54 213.8 2.05 210.32 2.14 207.06 2.71 202.69 4.27 201.54 4.33 200.41 6.77 197.25 9.3 184.75 7.93 177.57 8.53 172.48 71.03 172.48 71.03 240.86 164.35 334.19"/><text class="cls-4" transform="translate(59.46 289.51) scale(0.94 1)">CA</text><path id="OR" class="cls-3" d="M132.55,86.83,116.4,85.76l-17.77-.21-16,3.79-1.58-1.43-5.82,3.66L70.82,92l-3.3-1.36-1.73,1.12-4.65.71-2.22-1.06-6.15-.79-1.34.1-5.65-.4L44,92.64,37.73,93.7l-5.9-2.62L30,81.34l-3.57-4.21-4.7.19-1-2.56-2.91-.07-3.33.13-1.66,1.46-.09.08L11.41,80,11,87.09,10.74,98l-1.29,7.39-.86,15.49L6.08,136.27,1.7,151.16l-1,3.44,1.71,8.79.45,6.35,5.95,2.69,117.49,0,.29-40.81-.09-4.72.78-6.17-1.07-1.09-2.46.83-1.82-1.42.16-1.66-.56-3.4,3-7,1.62-1.45.67-1.06-.09-2.89.47-1.33,7.62-6.57-2.24-6.87"/><text class="cls-4" transform="translate(55.73 136.95) scale(0.94 1)">OR</text><path id="WA" class="cls-3" d="M132.59,86.76h0l-16.15-1-17.77-.2-16,3.81L81.1,87.9l-5.81,3.67L70.87,92l-3.3-1.37L65.84,91.8l-4.66.71L59,91.46l-6.14-.79-1.35.11-5.65-.4-1.73,2.29-6.31,1.07-5.91-2.61L30,81.39l-3.58-4.21-4.7.2-1-2.56-2.91-.07-3.33.14-1.75,1.53L9.47,73.76l-.36-3.28,2.92-1,.81-4.81-3.14-.6L9,60l4.73-1.71-3.63-2.35L6.79,48.38l0-3.35L4.88,36.28,2.12,33.17l.31-11,2.44.05L8.22,24.9l3.61,2.24,4,1.34,5.48,1.25,3.57-.07,3.57,1,4,.29,1.39-.76.53-2.66L35.56,26l.91-.84,1.7.05.76,1.92-2.42,1.1.16,2.4L39,31.83l1.79,2.39,1.12,2,1.62-.57-.09-1.49L42,32.92l-1.32-3.43.46-2.18-1-1.52-.62-2.88,1.13-4.41-1.83-2.62L35,11.14l.15-1L36.53,9l5.23.61,90.74-.1ZM26.44,18l2.44-.78,1,1.61,1.44-2.4,2.87-.61,1.4,1.65L34.18,20l1,.84-.34,2.67-1.64.88s-1.09.36-1.17,0-.07-2.4-.07-2.4l-1-.29,0,.71-.71.93-2.49-2.46Z"/><text class="cls-4" transform="translate(54.68 57.36) scale(0.94 1)">WA</text></g></g></svg>